<?xml version="1.0" standalone="no"?>
<!DOCTYPE svg PUBLIC "-//W3C//DTD SVG 20010904//EN"
 "http://www.w3.org/TR/2001/REC-SVG-20010904/DTD/svg10.dtd">
<svg version="1.0" xmlns="http://www.w3.org/2000/svg"
 width="512.000000pt" height="512.000000pt" viewBox="0 0 512.000000 512.000000"
 preserveAspectRatio="xMidYMid meet">
<metadata>
Created by potrace 1.15, written by Peter Selinger 2001-2017
</metadata>
<g transform="translate(0.000000,512.000000) scale(0.100000,-0.100000)"
fill="#000000" stroke="none">
<path d="M1753 3348 c-219 -17 -431 -132 -562 -305 -70 -92 -155 -267 -186
-383 -14 -52 -30 -144 -37 -205 -6 -60 -12 -111 -13 -112 -1 -2 -37 5 -81 14
-117 24 -489 25 -599 0 -136 -30 -226 -81 -261 -149 -20 -38 -17 -135 5 -183
21 -48 78 -100 135 -124 138 -59 473 -61 830 -6 188 29 176 29 176 12 0 -27
60 -97 102 -119 42 -22 52 -23 359 -26 266 -3 322 -1 353 12 46 19 59 53 53
134 -5 70 -9 68 78 47 169 -41 465 -82 691 -95 l152 -8 45 -35 c27 -21 67 -40
97 -46 30 -7 168 -11 336 -11 317 0 341 4 364 59 16 40 7 137 -19 196 l-19 43
86 32 c120 45 259 114 318 159 l49 37 90 -13 c538 -74 596 -77 671 -33 111 63
189 228 137 288 -11 12 -72 37 -153 62 -173 54 -236 83 -335 155 -86 62 -237
141 -290 151 -18 3 -54 24 -81 46 -67 56 -155 95 -244 109 -67 10 -92 9 -235
-15 -88 -14 -174 -29 -192 -31 -56 -10 -158 14 -461 106 -480 147 -726 204
-988 228 -155 15 -265 17 -371 9z m367 -183 c278 -33 463 -76 918 -214 166
-51 333 -99 370 -106 98 -21 183 -18 339 11 195 36 296 27 364 -33 15 -13 15
-18 -1 -72 -23 -73 -40 -192 -40 -280 0 -52 -4 -71 -18 -83 -57 -51 -416 -198
-481 -198 -63 0 -67 6 -95 113 -14 56 -28 123 -31 150 -8 65 -40 101 -90 101
-29 0 -43 -7 -62 -29 -23 -27 -25 -34 -18 -98 5 -59 33 -184 50 -229 5 -12
-20 -20 -127 -41 -73 -15 -139 -27 -145 -27 -7 0 -44 47 -82 104 -103 153
-143 176 -203 116 -43 -43 -35 -76 51 -204 39 -58 71 -108 71 -112 0 -10 -205
5 -375 27 -165 21 -333 53 -555 105 -80 19 -163 34 -185 34 l-40 0 -22 78
c-13 42 -28 112 -34 154 -13 91 -38 122 -96 122 -27 0 -42 -7 -60 -29 -23 -26
-24 -33 -18 -94 4 -36 17 -106 30 -156 12 -49 22 -91 21 -91 0 -1 -67 -15
-147 -31 l-147 -30 -39 51 c-68 86 -83 126 -83 211 0 240 127 525 292 656 68
54 177 106 259 123 85 19 275 19 429 1z"/>
<path d="M3777 2725 c-81 -82 3 -215 108 -171 107 45 75 195 -41 196 -31 0
-48 -6 -67 -25z"/>
</g>
</svg>
