<?xml version="1.0" standalone="no"?>
<!DOCTYPE svg PUBLIC "-//W3C//DTD SVG 20010904//EN"
 "http://www.w3.org/TR/2001/REC-SVG-20010904/DTD/svg10.dtd">
<svg version="1.0" xmlns="http://www.w3.org/2000/svg"
 width="5333.000000pt" height="1706.000000pt" viewBox="0 0 5333.000000 1706.000000"
 preserveAspectRatio="xMidYMid meet">
<metadata>
Created by potrace 1.15, written by Peter Selinger 2001-2017
</metadata>
<g transform="translate(0.000000,1706.000000) scale(0.100000,-0.100000)"
fill="#000000" stroke="none">
<path d="M7455 11824 c-317 -24 -450 -43 -662 -94 -785 -190 -1503 -682 -1932
-1324 -243 -364 -507 -912 -640 -1329 -83 -261 -159 -676 -211 -1146 -16 -150
-30 -280 -30 -287 0 -21 -44 -17 -238 21 -367 72 -637 90 -1377 90 -739 -1
-1007 -19 -1305 -91 -400 -96 -708 -248 -882 -434 -151 -160 -173 -228 -172
-515 1 -181 3 -209 26 -296 41 -152 92 -240 212 -366 126 -133 273 -232 441
-296 532 -205 1726 -229 3035 -61 107 14 368 51 580 83 560 86 530 85 530 21
0 -123 259 -414 457 -514 127 -64 258 -74 1096 -86 1187 -17 1617 -11 1773 25
89 20 156 58 209 117 79 88 98 203 82 485 -14 255 -18 252 277 182 575 -137
1373 -264 2166 -343 347 -35 580 -53 1009 -76 255 -14 380 -24 392 -33 10 -6
69 -51 131 -99 190 -145 351 -217 538 -237 209 -23 750 -33 1530 -28 818 5
921 9 1075 47 134 34 196 92 238 224 19 61 22 92 21 221 -1 229 -40 415 -129
619 -24 55 -45 107 -47 114 -2 9 82 45 257 111 399 150 699 284 1000 444 205
109 305 172 475 298 l145 107 125 -19 c226 -34 1069 -148 1394 -189 515 -65
785 -91 1026 -97 251 -6 348 2 466 42 317 107 635 456 760 835 24 74 28 101
28 210 1 118 -1 128 -27 183 -22 43 -39 63 -73 83 -91 54 -259 117 -634 240
-569 186 -782 272 -1016 409 -92 54 -142 87 -421 279 -358 245 -910 527 -1129
576 -74 17 -212 94 -327 184 -275 215 -531 343 -842 421 -189 48 -370 69 -535
62 -164 -7 -210 -14 -910 -128 -552 -91 -556 -91 -690 -86 -265 11 -632 104
-1830 467 -902 273 -1340 397 -1865 531 -966 245 -1598 352 -2515 425 -191 15
-927 27 -1055 18z m685 -734 c390 -15 638 -39 1115 -106 918 -129 1725 -328
3425 -844 833 -253 1353 -401 1545 -439 189 -38 277 -46 505 -46 279 1 469 22
925 105 499 90 860 103 1114 39 116 -29 268 -108 342 -178 l62 -59 -8 -48 c-3
-26 -19 -90 -35 -143 -111 -376 -163 -718 -180 -1196 -5 -148 -14 -255 -22
-280 -18 -54 -69 -103 -173 -165 -381 -225 -1341 -620 -1742 -716 -87 -21
-126 -25 -198 -22 -183 8 -220 57 -315 412 -42 158 -110 476 -135 629 -28 175
-58 266 -110 337 -68 93 -153 131 -287 131 -114 0 -164 -21 -240 -103 -87 -92
-103 -132 -101 -253 3 -239 108 -800 198 -1064 23 -70 24 -76 8 -93 -30 -34
-190 -74 -663 -167 -140 -27 -299 -57 -353 -67 l-99 -16 -35 33 c-50 49 -161
197 -303 404 -237 346 -389 522 -495 575 -72 35 -157 39 -220 9 -59 -28 -177
-137 -212 -196 -81 -139 -18 -311 278 -755 148 -221 299 -458 299 -470 0 -13
-278 -9 -500 7 -1062 79 -1976 224 -3240 516 -550 127 -786 169 -951 169
l-106 0 -71 253 c-87 312 -113 424 -157 680 -49 289 -89 396 -177 471 -54 46
-122 66 -225 67 -125 1 -156 -12 -238 -94 -100 -102 -110 -126 -109 -267 2
-188 43 -429 150 -875 35 -148 66 -278 68 -287 5 -20 66 -6 -634 -148 -294
-60 -545 -112 -556 -115 -19 -4 -43 23 -162 178 -214 279 -280 392 -327 553
-73 251 -44 727 71 1189 184 734 582 1438 1031 1826 245 211 598 405 944 517
214 70 388 97 704 111 256 12 307 12 595 1z"/>
<path d="M15873 9306 c-96 -31 -185 -116 -236 -224 -30 -64 -32 -73 -32 -187
0 -114 2 -123 32 -187 91 -194 297 -290 494 -232 207 62 329 215 329 415 0
177 -105 333 -270 400 -69 28 -251 37 -317 15z"/>
</g>
</svg>
